Normalized EMG Linear Envelopes
nRows=226
nColumns=4

endheader
time	 med_gas_r	  soleus_r	 tib_ant_r	
2.66129	  0.003729	  0.005743	  0.001651	
2.69456	  0.003668	  0.005790	  0.001665	
2.72782	  0.003659	  0.005813	  0.001683	
2.76109	  0.003683	  0.005818	  0.001696	
2.79435	  0.003735	  0.005814	  0.001697	
2.82762	  0.003827	  0.005799	  0.001684	
2.86089	  0.003950	  0.005750	  0.001659	
2.89415	  0.004077	  0.005658	  0.001624	
2.92742	  0.004159	  0.005535	  0.001585	
2.96069	  0.004165	  0.005386	  0.001547	
2.99395	  0.004116	  0.005218	  0.001509	
3.02722	  0.004039	  0.005044	  0.001473	
3.06048	  0.003945	  0.004889	  0.001441	
3.09375	  0.003863	  0.004782	  0.001418	
3.12702	  0.003815	  0.004745	  0.001408	
3.16028	  0.003805	  0.004781	  0.001414	
3.19355	  0.003807	  0.004875	  0.001435	
3.22681	  0.003783	  0.005013	  0.001469	
3.26008	  0.003695	  0.005184	  0.001512	
3.29335	  0.003562	  0.005368	  0.001561	
3.32661	  0.003431	  0.005537	  0.001611	
3.35988	  0.003324	  0.005666	  0.001652	
3.39315	  0.003242	  0.005741	  0.001681	
3.42641	  0.003182	  0.005765	  0.001697	
3.45968	  0.003141	  0.005759	  0.001698	
3.49294	  0.003105	  0.005742	  0.001688	
3.52621	  0.003066	  0.005721	  0.001676	
3.55948	  0.003035	  0.005705	  0.001669	
3.59274	  0.003024	  0.005705	  0.001672	
3.62601	  0.003031	  0.005736	  0.001682	
3.65927	  0.003056	  0.005819	  0.001695	
3.69254	  0.003105	  0.005944	  0.001713	
3.72581	  0.003178	  0.006077	  0.001740	
3.75907	  0.003258	  0.006181	  0.001782	
3.79234	  0.003319	  0.006231	  0.001850	
3.8256	  0.003353	  0.006219	  0.001957	
3.85887	  0.003370	  0.006137	  0.002109	
3.89214	  0.003376	  0.005989	  0.002297	
3.9254	  0.003378	  0.005808	  0.002503	
3.95867	  0.003390	  0.005640	  0.002692	
3.99194	  0.003416	  0.005509	  0.002806	
4.0252	  0.003451	  0.005428	  0.002753	
4.05847	  0.003486	  0.005410	  0.002409	
4.09173	  0.003507	  0.005479	  0.001617	
4.125	  0.003490	  0.005679	  0.000202	
4.15827	  0.003407	  0.006044	 -0.002011	
4.19153	  0.003245	  0.006583	 -0.005150	
4.2248	  0.003008	  0.007265	 -0.009233	
4.25806	  0.002728	  0.008003	 -0.014078	
4.29133	  0.002443	  0.008647	 -0.019176	
4.3246	  0.002200	  0.008966	 -0.023557	
4.35786	  0.002068	  0.008653	 -0.025642	
4.39113	  0.002151	  0.007782	 -0.023117	
4.4244	  0.002612	  0.007489	 -0.012888	
4.45766	  0.003671	  0.009194	  0.008835	
4.49093	  0.005573	  0.014303	  0.046213	
4.52419	  0.008535	  0.024113	  0.103123	
4.55746	  0.012709	  0.039640	  0.182029	
4.59073	  0.018112	  0.061324	  0.282292	
4.62399	  0.024490	  0.088557	  0.397840	
4.65726	  0.031175	  0.119076	  0.515043	
4.69052	  0.037296	  0.149199	  0.618061	
4.72379	  0.042264	  0.175711	  0.697420	
4.75706	  0.045841	  0.196339	  0.750423	
4.79032	  0.048212	  0.210449	  0.779197	
4.82359	  0.049844	  0.219279	  0.787749	
4.85685	  0.051036	  0.224287	  0.783487	
4.89012	  0.051707	  0.225606	  0.775048	
4.92339	  0.051602	  0.223192	  0.769926	
4.95665	  0.050736	  0.218782	  0.770417	
4.98992	  0.049277	  0.214084	  0.774045	
5.02319	  0.047530	  0.210135	  0.777182	
5.05645	  0.045751	  0.207218	  0.776451	
5.08972	  0.043895	  0.204309	  0.769599	
5.12298	  0.042000	  0.200992	  0.758472	
5.15625	  0.040145	  0.197038	  0.746043	
5.18952	  0.038551	  0.192713	  0.734120	
5.22278	  0.037295	  0.188132	  0.723506	
5.25605	  0.036305	  0.183669	  0.713959	
5.28931	  0.035624	  0.180070	  0.706519	
5.32258	  0.035272	  0.178154	  0.701981	
5.35585	  0.035087	  0.178153	  0.701878	
5.38911	  0.034853	  0.179925	  0.705389	
5.42238	  0.034297	  0.182050	  0.709966	
5.45565	  0.033459	  0.183098	  0.714739	
5.48891	  0.032573	  0.183592	  0.719672	
5.52218	  0.031805	  0.182886	  0.723805	
5.55544	  0.031337	  0.180127	  0.725790	
5.58871	  0.031307	  0.175998	  0.724381	
5.62198	  0.031697	  0.171681	  0.722546	
5.65524	  0.032332	  0.168095	  0.723314	
5.68851	  0.033087	  0.165493	  0.728830	
5.72177	  0.033907	  0.163528	  0.740733	
5.75504	  0.034798	  0.162539	  0.757712	
5.78831	  0.035600	  0.162090	  0.775431	
5.82157	  0.036133	  0.161759	  0.787675	
5.85484	  0.036464	  0.161703	  0.792219	
5.8881	  0.036672	  0.162681	  0.787309	
5.92137	  0.036721	  0.164828	  0.773891	
5.95464	  0.036597	  0.167678	  0.757445	
5.9879	  0.036325	  0.170670	  0.741243	
6.02117	  0.035847	  0.172883	  0.725302	
6.05444	  0.035245	  0.173827	  0.708859	
6.0877	  0.034615	  0.173511	  0.691747	
6.12097	  0.033952	  0.171445	  0.674772	
6.15423	  0.033357	  0.167687	  0.660814	
6.1875	  0.033038	  0.162781	  0.650971	
6.22077	  0.033129	  0.157736	  0.643946	
6.25403	  0.033686	  0.153920	  0.639193	
6.2873	  0.034627	  0.152622	  0.636201	
6.32056	  0.035730	  0.153831	  0.634276	
6.35383	  0.036825	  0.156892	  0.634450	
6.3871	  0.037859	  0.161507	  0.637408	
6.42036	  0.038841	  0.166676	  0.640938	
6.45363	  0.039692	  0.171141	  0.644815	
6.4869	  0.040403	  0.174670	  0.651089	
6.52016	  0.041019	  0.176532	  0.660116	
6.55343	  0.041640	  0.175974	  0.669825	
6.58669	  0.042337	  0.173269	  0.679055	
6.61996	  0.042982	  0.168933	  0.688033	
6.65323	  0.043307	  0.163833	  0.694753	
6.68649	  0.043032	  0.158873	  0.698680	
6.71976	  0.042022	  0.155029	  0.700783	
6.75302	  0.040698	  0.152552	  0.701199	
6.78629	  0.039455	  0.151216	  0.699371	
6.81956	  0.038303	  0.150558	  0.696909	
6.85282	  0.037287	  0.150775	  0.696681	
6.88609	  0.036576	  0.152565	  0.700441	
6.91935	  0.036217	  0.156157	  0.705995	
6.95262	  0.036194	  0.160683	  0.709873	
6.98589	  0.036362	  0.164630	  0.707587	
7.01915	  0.036701	  0.167657	  0.697217	
7.05242	  0.037300	  0.171021	  0.680645	
7.08569	  0.037948	  0.174662	  0.660286	
7.11895	  0.038377	  0.177368	  0.639246	
7.15222	  0.038664	  0.178886	  0.621730	
7.18548	  0.038912	  0.179722	  0.611002	
7.21875	  0.039044	  0.179360	  0.608014	
7.25202	  0.038998	  0.177124	  0.610303	
7.28528	  0.038695	  0.172942	  0.613082	
7.31855	  0.038031	  0.167331	  0.613267	
7.35181	  0.037129	  0.161883	  0.611935	
7.38508	  0.036160	  0.157426	  0.611384	
7.41835	  0.035141	  0.153848	  0.613752	
7.45161	  0.034094	  0.151192	  0.618774	
7.48488	  0.033174	  0.149940	  0.624892	
7.51815	  0.032539	  0.149593	  0.631000	
7.55141	  0.032287	  0.149577	  0.635908	
7.58468	  0.032424	  0.150036	  0.638289	
7.61794	  0.032892	  0.151297	  0.637693	
7.65121	  0.033676	  0.153101	  0.635256	
7.68448	  0.034687	  0.155510	  0.632716	
7.71774	  0.035909	  0.158447	  0.630348	
7.75101	  0.037344	  0.161747	  0.627838	
7.78427	  0.038946	  0.165250	  0.623418	
7.81754	  0.040543	  0.168843	  0.617859	
7.85081	  0.041833	  0.172317	  0.613891	
7.88407	  0.042439	  0.175098	  0.612037	
7.91734	  0.042311	  0.176350	  0.612266	
7.9506	  0.041569	  0.175338	  0.613965	
7.98387	  0.040285	  0.171505	  0.616248	
8.01714	  0.038749	  0.166170	  0.618582	
8.0504	  0.037282	  0.161383	  0.621714	
8.08367	  0.036004	  0.157744	  0.623988	
8.11694	  0.035078	  0.155319	  0.625910	
8.1502	  0.034529	  0.154364	  0.628344	
8.18347	  0.034426	  0.155234	  0.630742	
8.21673	  0.034782	  0.158009	  0.634819	
8.25	  0.035375	  0.162355	  0.639933	
8.28327	  0.035845	  0.167338	  0.643935	
8.31653	  0.036065	  0.171957	  0.645573	
8.3498	  0.036055	  0.174917	  0.645705	
8.38306	  0.035966	  0.175722	  0.646448	
8.41633	  0.035827	  0.174736	  0.646740	
8.4496	  0.035528	  0.172915	  0.642472	
8.48286	  0.035040	  0.171469	  0.631165	
8.51613	  0.034531	  0.171349	  0.616095	
8.5494	  0.034143	  0.172864	  0.601914	
8.58266	  0.033894	  0.175123	  0.592785	
8.61593	  0.033814	  0.177309	  0.589702	
8.64919	  0.033904	  0.179206	  0.590641	
8.68246	  0.034134	  0.179803	  0.591602	
8.71573	  0.034476	  0.177996	  0.589222	
8.74899	  0.034988	  0.174767	  0.582317	
8.78226	  0.035752	  0.171864	  0.571122	
8.81552	  0.036813	  0.169977	  0.559123	
8.84879	  0.038165	  0.168957	  0.550285	
8.88206	  0.039736	  0.169402	  0.547535	
8.91532	  0.041303	  0.171879	  0.552004	
8.94859	  0.042516	  0.176103	  0.561390	
8.98185	  0.043248	  0.181544	  0.569539	
9.01512	  0.043371	  0.187137	  0.569807	
9.04839	  0.042556	  0.191162	  0.555336	
9.08165	  0.040508	  0.191272	  0.522543	
9.11492	  0.037240	  0.185422	  0.473053	
9.14819	  0.032924	  0.172712	  0.410973	
9.18145	  0.027864	  0.153423	  0.341820	
9.21472	  0.022475	  0.129700	  0.271346	
9.24798	  0.017298	  0.104854	  0.204442	
9.28125	  0.012782	  0.081104	  0.144536	
9.31452	  0.009157	  0.060152	  0.094164	
9.34778	  0.006463	  0.043029	  0.054693	
9.38105	  0.004602	  0.030048	  0.026071	
9.41431	  0.003428	  0.020983	  0.007087	
9.44758	  0.002783	  0.015014	 -0.004116	
9.48085	  0.002517	  0.011105	 -0.009557	
9.51411	  0.002508	  0.008421	 -0.011102	
9.54738	  0.002652	  0.006610	 -0.010280	
9.58065	  0.002855	  0.005494	 -0.008241	
9.61391	  0.003064	  0.004910	 -0.005781	
9.64718	  0.003252	  0.004693	 -0.003395	
9.68044	  0.003400	  0.004708	 -0.001358	
9.71371	  0.003510	  0.004848	  0.000218	
9.74698	  0.003589	  0.005048	  0.001333	
9.78024	  0.003639	  0.005270	  0.002045	
9.81351	  0.003664	  0.005490	  0.002439	
9.84677	  0.003658	  0.005695	  0.002607	
9.88004	  0.003626	  0.005875	  0.002629	
9.91331	  0.003591	  0.005993	  0.002574	
9.94657	  0.003565	  0.006031	  0.002499	
9.97984	  0.003551	  0.006021	  0.002437	
10.0131	  0.003545	  0.005992	  0.002407	
10.0464	  0.003540	  0.005956	  0.002408	
10.0796	  0.003533	  0.005901	  0.002425	
10.1129	  0.003527	  0.005808	  0.002442	
10.1462	  0.003520	  0.005688	  0.002445	
